# xmcd
#
# Track frame offsets: 
#        150
#        11630
#        23632
#        35827
#        46597
#        57640
#        69770
#        79787
#        90567
#        101660
#        112840
#        124360
#        136605
#        148277
#        160907
#        174445
#        187840
#        200082
#        212597
#        224845
#
# Disc length: 3152 seconds
#
# Revision: 3
# Processed by: cddbd v1.5.2PL0 Copyright (c) Steve Scherf et al.
# Submitted via: ExactAudioCopy v0.90b4
#
DISCID=1b0c4e14
DTITLE=Ray Price - The Essential Ray Price (1951-1962)
DYEAR=1991
DGENRE=Country
TTITLE0=If You're Ever Lonely Darling
TTITLE1=The Road of No Return
TTITLE2=Talk to Your Heart
TTITLE3=Move on in and Stay
TTITLE4=I'll Be There
TTITLE5=Release Me
TTITLE6=I Can't Go Home Like This
TTITLE7=You Done Me Wrong
TTITLE8=Falling Falling Falling
TTITLE9=Wasted Words
TTITLE10=Crazy Arms
TTITLE11=I've Got a New Heartache
TTITLE12=My Shoes Keep Walking Back to You
TTITLE13=Invitation to the Blues
TTITLE14=City Lights
TTITLE15=Heartaches by the Number
TTITLE16=The Same Old Me
TTITLE17=One More Time
TTITLE18=Heart Over Mind
TTITLE19=Pride
EXTD=
EXTT0=
EXTT1=
EXTT2=
EXTT3=
EXTT4=
EXTT5=
EXTT6=
EXTT7=
EXTT8=
EXTT9=
EXTT10=
EXTT11=
EXTT12=
EXTT13=
EXTT14=
EXTT15=
EXTT16=
EXTT17=
EXTT18=
EXTT19=
PLAYORDER=
